<svg width="179" height="40" viewBox="0 0 179 40" fill="none" xmlns="http://www.w3.org/2000/svg">
<g clip-path="url(#clip0_58_321)">
<path d="M166.743 14.7408H169.925L170.049 16.4063C170.464 15.7766 170.978 15.296 171.59 14.9645C172.22 14.6165 172.917 14.4425 173.678 14.4425C176.777 14.4425 178.319 16.34 178.303 20.1351V20.8063H178.327V27.1701H174.971V20.8063H174.947C174.947 19.6131 174.739 18.7845 174.325 18.3205C173.928 17.8398 173.348 17.5996 172.585 17.5996C171.773 17.5996 171.151 17.8647 170.72 18.395C170.307 18.9087 170.099 19.6546 170.099 20.6323V27.1701H166.743V14.7408Z" fill="#AFAFAF"/>
<path d="M158.141 27.4684C156.882 27.4684 155.755 27.1949 154.762 26.648C153.767 26.0846 152.988 25.3139 152.424 24.3362C151.878 23.3419 151.604 22.215 151.604 20.9554C151.604 19.6959 151.878 18.5773 152.424 17.5996C152.988 16.6052 153.759 15.8346 154.736 15.2877C155.714 14.7242 156.832 14.4425 158.092 14.4425C159.351 14.4425 160.471 14.7242 161.448 15.2877C162.442 15.8346 163.213 16.6052 163.76 17.5996C164.323 18.5773 164.605 19.6959 164.605 20.9554C164.605 22.215 164.331 23.3419 163.785 24.3362C163.238 25.3139 162.467 26.0846 161.473 26.648C160.495 27.1949 159.385 27.4684 158.141 27.4684ZM155.06 20.9554C155.06 21.9663 155.342 22.795 155.904 23.4413C156.484 24.0711 157.231 24.386 158.141 24.386C159.037 24.386 159.766 24.0711 160.33 23.4413C160.893 22.795 161.175 21.9663 161.175 20.9554C161.175 19.9446 160.884 19.1242 160.304 18.4945C159.742 17.8481 159.003 17.5249 158.092 17.5249C157.214 17.5249 156.484 17.8481 155.904 18.4945C155.342 19.1242 155.06 19.9446 155.06 20.9554Z" fill="#AFAFAF"/>
<path d="M145.92 14.7409H149.276V27.1703H145.92V14.7409ZM147.611 12.7771C147.08 12.7771 146.624 12.5866 146.243 12.2054C145.862 11.8242 145.672 11.3768 145.672 10.863C145.672 10.3327 145.862 9.87698 146.243 9.49581C146.641 9.11466 147.096 8.92407 147.611 8.92407C148.124 8.92407 148.572 9.11466 148.952 9.49581C149.333 9.87698 149.524 10.3327 149.524 10.863C149.524 11.3768 149.333 11.8242 148.952 12.2054C148.588 12.5866 148.141 12.7771 147.611 12.7771Z" fill="#AFAFAF"/>
<path d="M140.841 27.4688C139.465 27.4688 138.412 27.129 137.683 26.4495C136.972 25.7701 136.615 24.7923 136.615 23.5163V17.5751H134.626V14.7412H136.615V10.8632H139.971V14.7412H143.053V17.5751H139.971V22.7705C139.971 23.3174 140.079 23.7234 140.294 23.9885C140.526 24.2372 140.874 24.3614 141.338 24.3614C141.67 24.3614 142.042 24.2123 142.457 23.914L143.65 26.4247C143.235 26.7396 142.78 26.9881 142.282 27.1704C141.785 27.3693 141.305 27.4688 140.841 27.4688Z" fill="#AFAFAF"/>
<path d="M129.848 25.7531C129.153 26.8967 128.009 27.4684 126.419 27.4684C124.927 27.4684 123.767 27.1369 122.939 26.474C122.126 25.8111 121.719 24.8749 121.719 23.6651C121.719 22.3558 122.16 21.3614 123.038 20.682C123.916 20.0025 125.159 19.6628 126.767 19.6628H129.725C129.492 18.1216 128.739 17.3509 127.462 17.3509C126.369 17.3509 125.539 17.8149 124.977 18.743L122.019 17.7238C122.416 16.7958 123.062 16.0169 123.958 15.3871C124.869 14.7573 126.037 14.4425 127.462 14.4425C129.319 14.4425 130.728 14.9645 131.689 16.0086C132.649 17.036 133.114 18.4613 133.08 20.2843L133.03 27.1701H129.899L129.848 25.7531ZM125.15 23.5656C125.15 23.9136 125.316 24.1953 125.648 24.4108C125.98 24.6097 126.435 24.709 127.015 24.709C127.529 24.709 127.993 24.5848 128.407 24.3362C128.838 24.0876 129.178 23.7645 129.426 23.3667C129.675 22.969 129.799 22.5547 129.799 22.1238H127.959C126.949 22.1238 126.228 22.2481 125.797 22.4967C125.366 22.7287 125.15 23.085 125.15 23.5656Z" fill="#AFAFAF"/>
<path d="M114.837 27.4682C113.545 27.4682 112.393 27.1947 111.382 26.6478C110.371 26.0844 109.576 25.3137 108.995 24.336C108.432 23.3417 108.15 22.2148 108.15 20.9552C108.15 19.6957 108.432 18.5771 108.995 17.5993C109.559 16.605 110.346 15.8344 111.357 15.2875C112.368 14.724 113.512 14.4423 114.788 14.4423C116.064 14.4423 117.207 14.7571 118.218 15.3869C119.246 16.0167 119.991 16.9033 120.456 18.0467L117.298 19.1654C117.066 18.6848 116.71 18.3036 116.229 18.0219C115.749 17.7402 115.219 17.5993 114.638 17.5993C113.744 17.5993 113.014 17.9142 112.451 18.5439C111.887 19.1572 111.606 19.9609 111.606 20.9552C111.606 21.933 111.887 22.7368 112.451 23.3665C113.031 23.9963 113.777 24.3111 114.688 24.3111C115.268 24.3111 115.799 24.1619 116.279 23.8637C116.76 23.5489 117.115 23.1345 117.348 22.6208L120.53 23.7394C120.049 24.916 119.304 25.8358 118.293 26.4987C117.282 27.145 116.13 27.4682 114.837 27.4682Z" fill="#AFAFAF"/>
<path d="M102.466 14.7409H105.822V27.1703H102.466V14.7409ZM104.157 12.7771C103.626 12.7771 103.171 12.5866 102.789 12.2054C102.408 11.8242 102.218 11.3768 102.218 10.863C102.218 10.3327 102.408 9.87698 102.789 9.49581C103.187 9.11466 103.643 8.92407 104.157 8.92407C104.67 8.92407 105.118 9.11466 105.499 9.49581C105.88 9.87698 106.071 10.3327 106.071 10.863C106.071 11.3768 105.88 11.8242 105.499 12.2054C105.134 12.5866 104.687 12.7771 104.157 12.7771Z" fill="#AFAFAF"/>
<path d="M96.1006 9.27219H99.4565V27.1703H96.1006V9.27219Z" fill="#AFAFAF"/>
<path d="M81.295 14.7408H84.477L84.6013 16.456C85.0155 15.8097 85.5376 15.3125 86.1673 14.9645C86.8137 14.6165 87.5512 14.4425 88.3798 14.4425C89.5067 14.4425 90.4928 14.7077 91.3379 15.238C92.1997 15.7683 92.8544 16.5223 93.3018 17.5001C93.7658 18.4778 93.9978 19.6296 93.9978 20.9554C93.9978 22.2647 93.7658 23.4164 93.3018 24.4108C92.8544 25.3886 92.1997 26.1426 91.3379 26.6729C90.4928 27.2032 89.5067 27.4684 88.3798 27.4684C87.5677 27.4684 86.8468 27.3027 86.2171 26.9712C85.5874 26.6232 85.0653 26.1343 84.651 25.5046V32.1418H81.295V14.7408ZM84.651 20.9554C84.651 21.9663 84.9162 22.795 85.4464 23.4413C85.9933 24.0711 86.6894 24.386 87.5346 24.386C88.3963 24.386 89.109 24.0628 89.6724 23.4164C90.2358 22.7702 90.5177 21.9498 90.5177 20.9554C90.5177 19.9611 90.2358 19.149 89.6724 18.5193C89.1255 17.8729 88.4212 17.5499 87.5594 17.5499C86.6977 17.5499 85.9933 17.8647 85.4464 18.4945C84.9162 19.1242 84.651 19.9446 84.651 20.9554Z" fill="#AFAFAF"/>
<path d="M66.3654 14.7408H69.5472L69.6715 16.456C70.0859 15.8097 70.6079 15.3125 71.2376 14.9645C71.8839 14.6165 72.6214 14.4425 73.45 14.4425C74.5769 14.4425 75.563 14.7077 76.4081 15.238C77.27 15.7683 77.9245 16.5223 78.3719 17.5001C78.836 18.4778 79.068 19.6296 79.068 20.9554C79.068 22.2647 78.836 23.4164 78.3719 24.4108C77.9245 25.3886 77.27 26.1426 76.4081 26.6729C75.563 27.2032 74.5769 27.4684 73.45 27.4684C72.6379 27.4684 71.917 27.3027 71.2873 26.9712C70.6576 26.6232 70.1355 26.1343 69.7212 25.5046V32.1418H66.3654V14.7408ZM69.7212 20.9554C69.7212 21.9663 69.9864 22.795 70.5167 23.4413C71.0636 24.0711 71.7597 24.386 72.6048 24.386C73.4665 24.386 74.1792 24.0628 74.7426 23.4164C75.3061 22.7702 75.5878 21.9498 75.5878 20.9554C75.5878 19.9611 75.3061 19.149 74.7426 18.5193C74.1957 17.8729 73.4915 17.5499 72.6296 17.5499C71.7679 17.5499 71.0636 17.8647 70.5167 18.4945C69.9864 19.1242 69.7212 19.9446 69.7212 20.9554Z" fill="#AFAFAF"/>
<path d="M60.4197 25.7531C59.7237 26.8967 58.5802 27.4684 56.9893 27.4684C55.4978 27.4684 54.3377 27.1369 53.5091 26.474C52.697 25.8111 52.291 24.8749 52.291 23.6651C52.291 22.3558 52.7302 21.3614 53.6085 20.682C54.4869 20.0025 55.7298 19.6628 57.3373 19.6628H60.2955C60.0635 18.1216 59.3094 17.3509 58.0333 17.3509C56.9396 17.3509 56.111 17.8149 55.5475 18.743L52.5894 17.7238C52.9871 16.7958 53.6334 16.0169 54.5283 15.3871C55.4398 14.7573 56.6081 14.4425 58.0333 14.4425C59.8895 14.4425 61.2981 14.9645 62.2594 16.0086C63.2205 17.036 63.6845 18.4613 63.6514 20.2843L63.6017 27.1701H60.4695L60.4197 25.7531ZM55.7215 23.5656C55.7215 23.9136 55.8872 24.1953 56.2187 24.4108C56.5501 24.6097 57.0059 24.709 57.586 24.709C58.0997 24.709 58.5637 24.5848 58.9779 24.3362C59.4088 24.0876 59.7486 23.7645 59.9972 23.3667C60.2457 22.969 60.37 22.5547 60.37 22.1238H58.5305C57.5196 22.1238 56.7987 22.2481 56.3679 22.4967C55.937 22.7287 55.7215 23.085 55.7215 23.5656Z" fill="#AFAFAF"/>
<path fill-rule="evenodd" clip-rule="evenodd" d="M18.7379 32.2253H10.708C5.98027 32.2253 2.14771 28.3927 2.14771 23.665C2.14771 19.4956 5.32538 16.0684 9.39102 15.6731C9.67769 11.4987 13.1548 8.20135 17.4019 8.20135H17.667C19.9517 8.20135 22.0207 9.125 23.5209 10.6193C25.5321 9.1014 28.0359 8.20135 30.7499 8.20135H31.3529C37.6539 8.20135 42.7618 13.3093 42.7618 19.6102C42.7618 26.5773 37.1139 32.2253 30.1467 32.2253H18.7379Z" fill="#AFAFAF"/>
</g>
<defs>
<clipPath id="clip0_58_321">
<rect width="177.942" height="39.2859" fill="white" transform="translate(0.530273 0.707886)"/>
</clipPath>
</defs>
</svg>
