<svg width="143" height="32" viewBox="0 0 143 32" fill="none" xmlns="http://www.w3.org/2000/svg">
<path d="M133.688 10.5166C137.414 10.5166 139.857 13.1127 139.857 16.5828C139.857 17.174 139.754 17.7138 139.651 18.2021H130.449C130.655 20.2585 132.376 21.3381 134.305 21.3381C135.821 21.3381 136.952 20.6955 137.749 19.8729L139.599 22.0836C137.98 23.6258 136.31 24.2427 134.15 24.2427C129.832 24.2427 126.979 21.2352 126.979 17.4053C126.979 13.5754 129.78 10.5166 133.688 10.5166ZM133.661 13.3183C132.017 13.3183 130.731 14.2951 130.449 15.9402H136.593V15.9145C136.463 14.2951 135.229 13.3183 133.661 13.3183Z" fill="#AFAFAF"/>
<path d="M117.179 10.8245H119.133V7.25156H122.372V10.8245H125.482V13.4977H122.372V19.3326C122.372 20.5921 122.989 21.2347 124.196 21.2347C124.582 21.2347 125.225 21.1833 125.816 20.7978V23.7281C125.225 24.0365 124.429 24.2421 123.323 24.2421C120.649 24.2421 119.03 22.6742 119.03 19.821V13.4977H117.179V10.8245Z" fill="#AFAFAF"/>
<path d="M102.422 10.8248H105.764V18.3819C105.764 20.2583 106.869 21.2607 108.411 21.2607C110.493 21.2607 111.419 19.3586 111.419 17.585V10.8248H114.76V23.934H111.547V22.1346C110.725 23.497 109.44 24.2424 107.512 24.2424C104.427 24.2424 102.422 22.2375 102.422 18.7674V10.8248Z" fill="#AFAFAF"/>
<path d="M91.7505 10.8244H93.704V7.25153H96.9427V10.8244H100.053V13.4976H96.9427V19.3325C96.9427 20.5921 97.5596 21.2347 98.7678 21.2347C99.1534 21.2347 99.7959 21.1832 100.387 20.7978V23.728C99.7959 24.0364 98.9991 24.2421 97.8938 24.2421C95.2206 24.2421 93.6012 22.6741 93.6012 19.8209V13.4976H91.7505V10.8244Z" fill="#AFAFAF"/>
<path d="M85.9855 23.9342V10.825H89.327V23.9342H85.9855ZM87.6305 5.14432C88.6844 5.14432 89.5583 5.91544 89.5583 7.02073C89.5583 8.12602 88.6844 8.92285 87.6305 8.92285C86.5252 8.92285 85.7028 8.12602 85.7028 7.02073C85.7028 5.91544 86.5252 5.14432 87.6305 5.14432Z" fill="#AFAFAF"/>
<path d="M75.0083 10.8244H76.9618V7.25153H80.2006V10.8244H83.3108V13.4976H80.2006V19.3325C80.2006 20.5921 80.8175 21.2347 82.0257 21.2347C82.4112 21.2347 83.0538 21.1832 83.645 20.7978V23.728C83.0538 24.0364 82.257 24.2421 81.1517 24.2421C78.4784 24.2421 76.859 22.6741 76.859 19.8209V13.4976H75.0083V10.8244Z" fill="#AFAFAF"/>
<path d="M68.4863 24.2428C66.1215 24.2428 64.0907 23.1375 63.0884 21.2867L65.3503 19.616C66.0701 20.747 67.0726 21.5438 68.4863 21.5438C69.7201 21.5438 70.4655 21.1068 70.4655 20.4129C70.4655 19.5903 69.7715 19.2561 67.638 18.5364C64.9647 17.6367 63.5253 16.5829 63.5253 14.4237C63.5253 12.1617 65.7359 10.5167 68.5633 10.5167C70.7226 10.5167 72.4961 11.5448 73.3443 13.1128L71.1081 14.7322C70.5683 13.8326 69.7457 13.1899 68.5119 13.1899C67.458 13.1899 66.6612 13.6783 66.6612 14.3981C66.6612 15.092 67.3553 15.4519 69.3859 16.1716C71.8792 17.0712 73.6014 17.9452 73.6014 20.3357C73.6014 22.5463 71.5194 24.2428 68.4863 24.2428Z" fill="#AFAFAF"/>
<path d="M48.3579 10.8251H51.5709V12.6244C52.3935 11.2621 53.6787 10.5167 55.6065 10.5167C58.691 10.5167 60.696 12.5216 60.696 15.9917V23.9344H57.3544V16.3773C57.3544 14.5008 56.2492 13.4984 54.7069 13.4984C52.6248 13.4984 51.6995 15.3748 51.6995 17.1741V23.9344H48.3579V10.8251Z" fill="#AFAFAF"/>
<path d="M41.2033 23.9342V10.825H44.5448V23.9342H41.2033ZM42.8483 5.14432C43.9022 5.14432 44.7761 5.91544 44.7761 7.02073C44.7761 8.12602 43.9022 8.92285 42.8483 8.92285C41.743 8.92285 40.9204 8.12602 40.9204 7.02073C40.9204 5.91544 41.743 5.14432 42.8483 5.14432Z" fill="#AFAFAF"/>
<path fill-rule="evenodd" clip-rule="evenodd" d="M9.44092 2.76205C4.67023 5.07406 1.38062 9.96293 1.38062 15.6201C1.38062 23.5069 7.77408 29.9003 15.6608 29.9003C21.318 29.9003 26.2069 26.6107 28.5189 21.84H15.6738L15.6608 21.8401C12.247 21.8401 9.47546 19.0896 9.44128 15.6839L9.44092 2.76205ZM29.7437 17.9993C29.8735 17.2256 29.9411 16.4308 29.9411 15.6201C29.9411 7.7334 23.5475 1.33994 15.6608 1.33994C14.8502 1.33994 14.0553 1.40748 13.2816 1.53724V9.87156C14.0145 9.56788 14.818 9.40028 15.6608 9.40028C19.0959 9.40028 21.8807 12.185 21.8807 15.6202C21.8807 16.4629 21.7131 17.2664 21.4094 17.9993H29.7437Z" fill="#AFAFAF"/>
</svg>
