<svg width="152" height="35" viewBox="0 0 152 35" fill="none" xmlns="http://www.w3.org/2000/svg">
<path d="M149.88 16.8231L146.32 17.0421C146.258 16.7379 146.128 16.4641 145.927 16.2207C145.727 15.9711 145.461 15.7734 145.133 15.6274C144.811 15.4752 144.425 15.3992 143.974 15.3992C143.371 15.3992 142.864 15.527 142.45 15.7826C142.035 16.032 141.828 16.3668 141.828 16.7865C141.828 17.1213 141.962 17.4043 142.23 17.6355C142.498 17.8668 142.957 18.0524 143.609 18.1923L146.146 18.7035C147.51 18.9834 148.525 19.4337 149.194 20.0544C149.865 20.6752 150.199 21.4906 150.199 22.5007C150.199 23.4196 149.928 24.2259 149.386 24.9197C148.851 25.6133 148.115 26.155 147.178 26.5444C146.247 26.9277 145.172 27.1194 143.956 27.1194C142.1 27.1194 140.621 26.7331 139.52 25.9602C138.424 25.1813 137.782 24.1224 137.594 22.7837L141.418 22.5828C141.534 23.1488 141.813 23.5808 142.258 23.879C142.702 24.1711 143.271 24.3172 143.965 24.3172C144.646 24.3172 145.194 24.1863 145.608 23.9247C146.027 23.657 146.241 23.3131 146.247 22.8932C146.241 22.5402 146.092 22.2512 145.8 22.026C145.507 21.7948 145.057 21.6184 144.449 21.4966L142.02 21.0128C140.651 20.7391 139.632 20.2644 138.963 19.5889C138.299 18.9134 137.968 18.0524 137.968 17.0056C137.968 16.105 138.211 15.3292 138.698 14.678C139.19 14.0269 139.881 13.5249 140.77 13.1719C141.664 12.819 142.711 12.6425 143.91 12.6425C145.681 12.6425 147.074 13.0167 148.091 13.7652C149.112 14.5137 149.71 15.533 149.88 16.8231Z" fill="#AFAFAF"/>
<path d="M135.446 16.8231L131.886 17.0421C131.826 16.7379 131.695 16.4641 131.494 16.2207C131.293 15.9711 131.029 15.7734 130.701 15.6274C130.377 15.4752 129.991 15.3992 129.54 15.3992C128.938 15.3992 128.43 15.527 128.016 15.7826C127.603 16.032 127.396 16.3668 127.396 16.7865C127.396 17.1213 127.53 17.4043 127.797 17.6355C128.065 17.8668 128.525 18.0524 129.175 18.1923L131.713 18.7035C133.076 18.9834 134.093 19.4337 134.762 20.0544C135.431 20.6752 135.766 21.4906 135.766 22.5007C135.766 23.4196 135.496 24.2259 134.954 24.9197C134.418 25.6133 133.682 26.155 132.745 26.5444C131.813 26.9277 130.74 27.1194 129.522 27.1194C127.666 27.1194 126.187 26.7331 125.086 25.9602C123.991 25.1813 123.349 24.1224 123.16 22.7837L126.985 22.5828C127.1 23.1488 127.381 23.5808 127.825 23.879C128.269 24.1711 128.838 24.3172 129.531 24.3172C130.213 24.3172 130.761 24.1863 131.174 23.9247C131.595 23.657 131.807 23.3131 131.813 22.8932C131.807 22.5402 131.658 22.2512 131.366 22.026C131.074 21.7948 130.624 21.6184 130.015 21.4966L127.588 21.0128C126.218 20.7391 125.199 20.2644 124.529 19.5889C123.866 18.9134 123.534 18.0524 123.534 17.0056C123.534 16.105 123.778 15.3292 124.265 14.678C124.758 14.0269 125.449 13.5249 126.336 13.1719C127.232 12.819 128.277 12.6425 129.477 12.6425C131.248 12.6425 132.642 13.0167 133.657 13.7652C134.68 14.5137 135.276 15.533 135.446 16.8231Z" fill="#AFAFAF"/>
<path d="M114.809 27.1194C113.367 27.1194 112.125 26.8273 111.085 26.2431C110.05 25.6529 109.253 24.8192 108.693 23.7421C108.133 22.6589 107.853 21.3779 107.853 19.8993C107.853 18.457 108.133 17.1913 108.693 16.102C109.253 15.0128 110.041 14.1639 111.057 13.5553C112.08 12.9468 113.278 12.6425 114.654 12.6425C115.579 12.6425 116.439 12.7916 117.236 13.0897C118.041 13.3818 118.74 13.823 119.336 14.4133C119.939 15.0037 120.407 15.746 120.742 16.6405C121.077 17.529 121.244 18.5695 121.244 19.7623V20.8303H109.405V18.4205H117.584C117.584 17.8607 117.462 17.3647 117.219 16.9326C116.975 16.5006 116.638 16.1628 116.206 15.9195C115.779 15.6699 115.284 15.5452 114.718 15.5452C114.127 15.5452 113.604 15.6821 113.148 15.956C112.697 16.2237 112.344 16.5857 112.089 17.0421C111.833 17.4925 111.702 17.9946 111.696 18.5483V20.8395C111.696 21.5331 111.824 22.1326 112.08 22.6376C112.341 23.1427 112.709 23.5322 113.184 23.806C113.659 24.0799 114.222 24.2168 114.873 24.2168C115.305 24.2168 115.7 24.1559 116.059 24.0342C116.418 23.9126 116.726 23.73 116.981 23.4865C117.236 23.2431 117.432 22.945 117.566 22.592L121.162 22.8293C120.979 23.6935 120.605 24.448 120.04 25.0931C119.479 25.732 118.755 26.231 117.866 26.59C116.985 26.943 115.965 27.1194 114.809 27.1194Z" fill="#AFAFAF"/>
<path d="M96.3181 18.74V26.8456H92.4294V12.825H96.1355V15.2988H96.2998C96.61 14.4833 97.1304 13.8383 97.8606 13.3636C98.5909 12.8829 99.4763 12.6425 100.517 12.6425C101.491 12.6425 102.339 12.8555 103.064 13.2814C103.788 13.7075 104.351 14.3159 104.752 15.1071C105.154 15.8921 105.355 16.8292 105.355 17.9184V26.8456H101.466V18.6122C101.472 17.7541 101.253 17.0848 100.809 16.604C100.365 16.1172 99.7532 15.8738 98.9742 15.8738C98.4509 15.8738 97.9884 15.9864 97.5868 16.2116C97.1912 16.4367 96.8809 16.7653 96.6557 17.1973C96.4367 17.6233 96.3241 18.1375 96.3181 18.74Z" fill="#AFAFAF"/>
<path d="M85.4261 26.8455V12.8249H89.3146V26.8455H85.4261ZM87.3795 11.0175C86.8014 11.0175 86.3055 10.8258 85.8916 10.4425C85.484 10.053 85.28 9.58748 85.28 9.04589C85.28 8.51038 85.484 8.05094 85.8916 7.66757C86.3055 7.27811 86.8014 7.08337 87.3795 7.08337C87.9576 7.08337 88.4505 7.27811 88.8583 7.66757C89.2721 8.05094 89.4789 8.51038 89.4789 9.04589C89.4789 9.58748 89.2721 10.053 88.8583 10.4425C88.4505 10.8258 87.9576 11.0175 87.3795 11.0175Z" fill="#AFAFAF"/>
<path d="M82.6571 16.8231L79.0972 17.0421C79.0363 16.7379 78.9055 16.4641 78.7047 16.2207C78.5038 15.9711 78.2391 15.7734 77.9105 15.6274C77.588 15.4752 77.2016 15.3992 76.7513 15.3992C76.1489 15.3992 75.6407 15.527 75.2269 15.7826C74.8132 16.032 74.6062 16.3668 74.6062 16.7865C74.6062 17.1213 74.7401 17.4043 75.0079 17.6355C75.2756 17.8668 75.735 18.0524 76.3862 18.1923L78.9237 18.7035C80.2869 18.9834 81.3031 19.4337 81.9724 20.0544C82.6419 20.6752 82.9766 21.4906 82.9766 22.5007C82.9766 23.4196 82.7058 24.2259 82.1641 24.9197C81.6287 25.6133 80.8923 26.155 79.9552 26.5444C79.0242 26.9277 77.9501 27.1194 76.7331 27.1194C74.8771 27.1194 73.3983 26.7331 72.2969 25.9602C71.2015 25.1813 70.5595 24.1224 70.3708 22.7837L74.1955 22.5828C74.3111 23.1488 74.591 23.5808 75.0352 23.879C75.4794 24.1711 76.0485 24.3172 76.7422 24.3172C77.4237 24.3172 77.9714 24.1863 78.3852 23.9247C78.8051 23.657 79.018 23.3131 79.0242 22.8932C79.018 22.5402 78.869 22.2512 78.5769 22.026C78.2848 21.7948 77.8345 21.6184 77.2259 21.4966L74.7979 21.0128C73.4287 20.7391 72.4094 20.2644 71.7401 19.5889C71.0767 18.9134 70.7451 18.0524 70.7451 17.0056C70.7451 16.105 70.9885 15.3292 71.4754 14.678C71.9683 14.0269 72.6589 13.5249 73.5473 13.1719C74.4419 12.819 75.4885 12.6425 76.6875 12.6425C78.4582 12.6425 79.8518 13.0167 80.868 13.7652C81.8903 14.5137 82.4867 15.533 82.6571 16.8231Z" fill="#AFAFAF"/>
<path d="M63.9926 20.8762V12.8253H67.8811V26.8459H64.1478V24.2991H64.0018C63.6854 25.1207 63.159 25.7809 62.4227 26.2799C61.6924 26.779 60.8009 27.0285 59.7481 27.0285C58.8111 27.0285 57.9865 26.8155 57.2745 26.3895C56.5625 25.9635 56.0057 25.358 55.604 24.573C55.2085 23.7881 55.0077 22.8479 55.0016 21.7525V12.8253H58.8901V21.0587C58.8962 21.8864 59.1183 22.5405 59.5564 23.0213C59.9946 23.502 60.5818 23.7424 61.3182 23.7424C61.7867 23.7424 62.2249 23.6359 62.6327 23.4229C63.0403 23.2039 63.3689 22.8812 63.6184 22.4553C63.874 22.0293 63.9988 21.503 63.9926 20.8762Z" fill="#AFAFAF"/>
<path d="M38.7332 26.8463V8.15222H42.6217V15.1808H42.7403C42.9107 14.8034 43.1572 14.42 43.4797 14.0306C43.8083 13.6351 44.2343 13.3065 44.7577 13.0448C45.2871 12.7771 45.9443 12.6432 46.7292 12.6432C47.7516 12.6432 48.6948 12.9109 49.559 13.4464C50.423 13.9759 51.1138 14.776 51.631 15.847C52.1483 16.912 52.4069 18.2478 52.4069 19.8543C52.4069 21.4183 52.1544 22.7387 51.6492 23.8158C51.1503 24.8869 50.4687 25.6993 49.6046 26.253C48.7466 26.8007 47.7851 27.0745 46.7201 27.0745C45.9656 27.0745 45.3236 26.9497 44.7942 26.7002C44.2709 26.4508 43.8418 26.1374 43.5071 25.76C43.1725 25.3767 42.9169 24.9903 42.7403 24.6009H42.5669V26.8463H38.7332ZM42.5395 19.8361C42.5395 20.6697 42.6552 21.3969 42.8864 22.0176C43.1177 22.6383 43.4523 23.1221 43.8905 23.469C44.3286 23.8097 44.8611 23.9802 45.4879 23.9802C46.1208 23.9802 46.6562 23.8067 47.0944 23.4598C47.5325 23.1069 47.8641 22.6201 48.0893 21.9993C48.3205 21.3726 48.4362 20.6515 48.4362 19.8361C48.4362 19.0267 48.3237 18.3147 48.0985 17.7001C47.8733 17.0855 47.5416 16.6047 47.1035 16.2578C46.6653 15.9109 46.1269 15.7375 45.4879 15.7375C44.8549 15.7375 44.3195 15.9049 43.8813 16.2396C43.4493 16.5743 43.1177 17.049 42.8864 17.6636C42.6552 18.2781 42.5395 19.0023 42.5395 19.8361Z" fill="#AFAFAF"/>
<path fill-rule="evenodd" clip-rule="evenodd" d="M16.5291 12.7706L20.7355 16.977L16.7304 20.9819L12.5241 16.7757L16.5291 12.7706ZM12.2164 8.45796L9.57929 5.82076C9.42886 5.67034 9.42886 5.42645 9.57929 5.27602L13.3472 1.50812C13.4976 1.35769 13.7415 1.35769 13.892 1.50812L26.7731 14.3893C28.2022 15.8184 28.2022 18.1354 26.7731 19.5645L21.0431 25.2946L23.6802 27.9318C23.8306 28.0823 23.8306 28.3261 23.6802 28.4765L19.9123 32.2445C19.7619 32.3948 19.518 32.3948 19.3676 32.2445L6.48636 19.3632C5.05728 17.9342 5.05728 15.6172 6.48636 14.1881L12.2164 8.45796Z" fill="#AFAFAF"/>
</svg>
