<svg width="161" height="32" viewBox="0 0 161 32" fill="none" xmlns="http://www.w3.org/2000/svg">
<g clip-path="url(#clip0_58_367)">
<path d="M154.244 11.2087H157.988L153.05 24.7749C151.639 28.6819 149.333 30.3913 145.886 30.2013V26.9455C147.814 26.9726 148.79 26.1586 149.442 24.3407L143.879 11.2087H147.705L151.232 20.3252L154.244 11.2087Z" fill="#AFAFAF"/>
<path d="M137.575 10.829C140.451 10.829 142.703 12.8367 142.703 16.4454V24.775H139.202V16.8795C139.202 15.0345 138.09 14.0849 136.516 14.0849C134.806 14.0849 133.532 15.0887 133.532 17.4492V24.775H130.032V11.2088H133.532V12.7282C134.345 11.5073 135.756 10.829 137.575 10.829Z" fill="#AFAFAF"/>
<path d="M123.357 11.2089H126.857V24.7751H123.357V23.1743C122.38 24.3951 120.915 25.1549 118.934 25.1549C115.326 25.1549 112.341 22.0346 112.341 17.992C112.341 13.9492 115.326 10.829 118.934 10.829C120.915 10.829 122.38 11.5887 123.357 12.8097V11.2089ZM119.586 21.8176C121.756 21.8176 123.357 20.271 123.357 17.992C123.357 15.7128 121.756 14.1662 119.586 14.1662C117.442 14.1662 115.841 15.7128 115.841 17.992C115.841 20.271 117.442 21.8176 119.586 21.8176Z" fill="#AFAFAF"/>
<path d="M103.958 10.829C107.594 10.829 110.579 13.9492 110.579 17.992C110.579 22.0346 107.594 25.1548 103.958 25.1548C101.978 25.1548 100.54 24.4223 99.5629 23.1742V30.2015H96.0627V11.2088H99.5629V12.8097C100.54 11.5616 101.978 10.829 103.958 10.829ZM103.307 21.8176C105.478 21.8176 107.079 20.271 107.079 17.992C107.079 15.7128 105.478 14.1662 103.307 14.1662C101.164 14.1662 99.5629 15.7128 99.5629 17.992C99.5629 20.271 101.164 21.8176 103.307 21.8176Z" fill="#AFAFAF"/>
<path d="M87.9626 10.829C91.0557 10.829 93.0906 13.0267 93.0906 16.4183V24.7751H89.5905V16.6625C89.5905 15.0616 88.7765 14.0849 87.3114 14.0849C85.7648 14.0849 84.7881 15.1159 84.7881 17.1508V24.7751H81.288V16.6625C81.288 15.0616 80.474 14.0849 79.0089 14.0849C77.5166 14.0849 76.4584 15.1159 76.4584 17.1508V24.7751H72.9584V11.2089H76.4584V12.6469C77.2181 11.5073 78.4933 10.829 80.2299 10.829C81.912 10.829 83.1601 11.5344 83.9198 12.7826C84.7609 11.5616 86.1175 10.829 87.9626 10.829Z" fill="#AFAFAF"/>
<path d="M63.3059 25.1549C59.3174 25.1549 56.1429 22.0346 56.1429 17.992C56.1429 13.9492 59.3174 10.829 63.3059 10.829C67.2944 10.829 70.4959 13.9492 70.4959 17.992C70.4959 22.0346 67.2944 25.1549 63.3059 25.1549ZM63.3059 21.7362C65.395 21.7362 66.9959 20.1897 66.9959 17.992C66.9959 15.7942 65.395 14.2477 63.3059 14.2477C61.2438 14.2477 59.643 15.7942 59.643 17.992C59.643 20.1897 61.2438 21.7362 63.3059 21.7362Z" fill="#AFAFAF"/>
<path d="M49.0764 25.1549C44.9522 25.1549 41.9135 22.0346 41.9135 17.992C41.9135 13.9492 44.9522 10.829 49.0764 10.829C51.7354 10.829 54.0416 12.2399 55.1541 14.3291L52.1424 16.0926C51.5997 14.9803 50.433 14.2749 49.0493 14.2749C46.9601 14.2749 45.4135 15.8213 45.4135 17.992C45.4135 20.1354 46.9601 21.682 49.0493 21.682C50.4601 21.682 51.6268 21.0036 52.1695 19.8912L55.2083 21.6277C54.0416 23.744 51.7354 25.1549 49.0764 25.1549Z" fill="#AFAFAF"/>
<path fill-rule="evenodd" clip-rule="evenodd" d="M12.0438 3.31339C10.8732 3.31339 9.92418 4.26238 9.92418 5.43305V12.0536H3.18156C2.01089 12.0536 1.06189 13.0026 1.06189 14.1732V29.8016C1.06189 30.9722 2.01089 31.9212 3.18156 31.9212H18.6242C19.7948 31.9212 20.7438 30.9722 20.7438 29.8016V23.181H27.4864C28.6572 23.181 29.6061 22.232 29.6061 21.0614V5.43305C29.6061 4.26238 28.6572 3.31339 27.4864 3.31339H12.0438ZM20.7438 23.181V14.1732C20.7438 13.0026 19.7948 12.0536 18.6242 12.0536H9.92418V21.0614C9.92418 22.232 10.8732 23.181 12.0438 23.181H20.7438Z" fill="#AFAFAF"/>
</g>
<defs>
<clipPath id="clip0_58_367">
<rect width="159.455" height="31.1977" fill="white" transform="translate(0.971069 0.751862)"/>
</clipPath>
</defs>
</svg>
