<svg width="128" height="31" viewBox="0 0 128 31" fill="none" xmlns="http://www.w3.org/2000/svg">
<g clip-path="url(#clip0_58_310)">
<path d="M121.908 23.5788C122.251 23.0476 122.448 22.4649 122.499 21.8309C122.551 21.1969 122.577 20.5713 122.577 19.9544C122.08 20.5885 121.471 21.0341 120.751 21.2911C120.031 21.5482 119.252 21.6766 118.412 21.6766C117.436 21.6766 116.588 21.5311 115.868 21.2396C115.165 20.9484 114.608 20.5028 114.197 19.9031C113.785 19.3547 113.503 18.7121 113.349 17.9752C113.194 17.2213 113.117 16.4072 113.117 15.5334V7.92484H116.741V15.0964C116.741 15.559 116.776 16.0131 116.844 16.4587C116.93 16.8871 117.101 17.2469 117.358 17.5382C117.77 18.1551 118.515 18.4636 119.594 18.4636C120.108 18.4636 120.588 18.3608 121.034 18.1551C121.48 17.9323 121.831 17.5896 122.088 17.127C122.311 16.7329 122.448 16.3216 122.499 15.8932C122.551 15.4476 122.577 14.9679 122.577 14.4537V7.92484H126.227V19.0548C126.227 19.6717 126.217 20.3058 126.2 20.9569C126.2 21.591 126.149 22.2165 126.046 22.8334C125.961 23.4503 125.798 24.05 125.558 24.6327C125.319 25.2153 124.985 25.7551 124.556 26.2521C123.956 26.9375 123.167 27.4859 122.191 27.8971C121.232 28.3083 120.075 28.5055 118.721 28.4884C117.727 28.5055 116.741 28.3683 115.765 28.077C114.788 27.8028 113.888 27.4001 113.066 26.869L114.222 23.7845C114.668 24.1101 115.259 24.4099 115.996 24.6841C116.75 24.9583 117.632 25.0953 118.643 25.0953C119.466 25.0953 120.134 24.9583 120.648 24.6841C121.18 24.427 121.599 24.0586 121.908 23.5788Z" fill="#AFAFAF"/>
<path d="M105.191 18.4632C105.876 18.4632 106.416 18.3004 106.81 17.9748C107.221 17.6493 107.47 17.2809 107.555 16.8696H111.36C111.24 17.7435 110.991 18.4805 110.614 19.0801C110.237 19.68 109.766 20.1769 109.201 20.571C108.652 20.9652 108.027 21.2479 107.324 21.4193C106.622 21.5906 105.893 21.6763 105.139 21.6763C104.008 21.6763 103.023 21.5221 102.183 21.2136C101.361 20.888 100.675 20.4253 100.127 19.8255C99.5786 19.2086 99.1588 18.4718 98.8674 17.615C98.5933 16.741 98.4562 15.7643 98.4562 14.6847C98.4562 13.6394 98.6104 12.6798 98.9188 11.8058C99.2273 10.9319 99.6643 10.1865 100.23 9.56955C100.812 8.95265 101.524 8.4814 102.363 8.15581C103.203 7.81309 104.163 7.64172 105.242 7.64172C106.03 7.64172 106.767 7.73598 107.453 7.92448C108.155 8.11298 108.772 8.4043 109.303 8.79843C109.852 9.19256 110.297 9.69808 110.64 10.315C111 10.9148 111.24 11.6345 111.36 12.4741H107.555C107.47 12.0629 107.213 11.6944 106.784 11.3689C106.373 11.0433 105.833 10.8805 105.165 10.8805C104.6 10.8805 104.111 10.9833 103.7 11.1889C103.289 11.3946 102.963 11.6773 102.723 12.0372C102.483 12.397 102.312 12.8083 102.209 13.271C102.106 13.7337 102.055 14.2221 102.055 14.7362C102.055 15.2845 102.115 15.7901 102.235 16.2527C102.355 16.6983 102.535 17.0924 102.775 17.4351C103.014 17.7607 103.331 18.0177 103.726 18.2063C104.137 18.3776 104.625 18.4632 105.191 18.4632Z" fill="#AFAFAF"/>
<path d="M87.4219 9.64694C88.5185 8.32746 89.8723 7.65915 91.4831 7.64201C92.3571 7.62486 93.1283 7.77053 93.7965 8.07899C94.4648 8.37029 95.0046 8.77299 95.4158 9.28709C95.9128 9.88685 96.2555 10.5894 96.4441 11.3948C96.6326 12.1831 96.7269 13.0656 96.7269 14.0424V21.4709H93.0768V14.3251C93.0768 13.8453 93.0254 13.3912 92.9226 12.9629C92.8368 12.5173 92.6827 12.1403 92.4599 11.8318C92.2372 11.5062 91.9372 11.2663 91.5603 11.1121C91.2004 10.9579 90.7891 10.8808 90.3265 10.8808C89.7438 10.8979 89.2468 11.0264 88.8356 11.2663C88.4414 11.5062 88.1416 11.8147 87.9359 12.1917C87.7303 12.5515 87.5847 12.9629 87.4989 13.4255C87.4304 13.871 87.3961 14.3251 87.3961 14.7878V21.4709H83.7719V7.92475H87.242L87.4219 9.64694Z" fill="#AFAFAF"/>
<path d="M75.6193 18.7203C76.1335 18.7203 76.5704 18.6431 76.9303 18.489C77.3072 18.3177 77.6157 18.0435 77.8556 17.6664H81.6598C81.4714 18.3691 81.1801 18.9773 80.786 19.4915C80.4089 20.0056 79.9463 20.4253 79.3979 20.751C78.8666 21.0766 78.2755 21.3164 77.6243 21.4707C76.9731 21.6077 76.2876 21.6763 75.5679 21.6763C73.3744 21.6763 71.7123 21.0594 70.5813 19.8255C69.4675 18.5917 68.9105 16.8611 68.9105 14.6333C68.9105 13.6223 69.0561 12.6883 69.3475 11.8315C69.6559 10.9747 70.0844 10.2379 70.6326 9.62096C71.181 8.98692 71.8579 8.49854 72.6634 8.15581C73.4858 7.81309 74.4198 7.64172 75.4651 7.64172C76.6817 7.64172 77.7356 7.85594 78.6267 8.28434C79.5178 8.71275 80.2204 9.30395 80.7346 10.0579C81.2657 10.7948 81.617 11.6602 81.7883 12.6541C81.9769 13.6479 81.9769 14.7104 81.7883 15.8414H72.5348C72.6034 16.6468 72.8861 17.3323 73.3831 17.8978C73.88 18.4461 74.6255 18.7203 75.6193 18.7203ZM78.4211 13.3481C78.4211 12.9197 78.344 12.5427 78.1897 12.2171C78.0355 11.8744 77.8299 11.6002 77.5728 11.3946C77.3159 11.1718 77.0074 11.009 76.6475 10.9062C76.3048 10.8034 75.9449 10.752 75.5679 10.752C74.6597 10.7691 73.9486 11.0176 73.4344 11.4974C72.9376 11.96 72.6462 12.5769 72.5605 13.3481H78.4211Z" fill="#AFAFAF"/>
<path d="M63.4434 20.0831C62.9294 20.6657 62.3125 21.0769 61.5927 21.3169C60.8731 21.5568 60.0934 21.6768 59.2537 21.6768C58.414 21.6768 57.5914 21.5483 56.7861 21.2912C55.9978 21.017 55.3123 20.58 54.7297 19.9803C54.0785 19.2949 53.6244 18.5065 53.3674 17.6155C53.1103 16.7244 52.9818 15.8075 52.9818 14.8651C52.9818 12.6374 53.5987 10.8552 54.8325 9.51859C55.3637 8.93595 56.0492 8.48184 56.8889 8.15625C57.7457 7.83067 58.6624 7.67645 59.6393 7.69358C60.2733 7.6593 60.9587 7.77069 61.6955 8.02773C62.4324 8.28478 63.0665 8.71318 63.5977 9.31295L63.9833 7.92492H67.1192V20.6228C67.1192 21.1712 67.0849 21.7111 67.0164 22.2422C66.9649 22.7906 66.8707 23.3132 66.7336 23.8102C66.5966 24.3243 66.3909 24.8127 66.1167 25.2753C65.8083 25.8408 65.4313 26.3207 64.9857 26.7148C64.5573 27.109 64.0775 27.4346 63.5463 27.6915C63.0151 27.9657 62.4496 28.1629 61.8498 28.2828C61.25 28.4027 60.6416 28.4627 60.0247 28.4627C59.2365 28.4627 58.4825 28.3684 57.7628 28.18C57.0431 28.0086 56.3833 27.7173 55.7836 27.306C55.2009 26.9118 54.7126 26.4063 54.3185 25.7894C53.9414 25.1725 53.693 24.4357 53.5729 23.5789H57.4286C57.4972 23.9901 57.7713 24.3586 58.2512 24.6842C58.731 25.0097 59.3137 25.1725 59.9991 25.1725C60.7359 25.1725 61.3357 25.0269 61.7984 24.7355C62.2782 24.4442 62.6381 24.0586 62.8779 23.5789C63.1179 23.099 63.2721 22.5507 63.3407 21.9338C63.4092 21.3169 63.4434 20.7 63.4434 20.0831ZM60.0762 18.4637C60.6416 18.4637 61.1386 18.3609 61.5671 18.1552C62.0126 17.9497 62.3724 17.6755 62.6466 17.3328C62.9208 16.9728 63.1265 16.5616 63.2635 16.099C63.4007 15.6191 63.4692 15.1136 63.4692 14.5823C63.4692 13.52 63.1692 12.646 62.5695 11.9605C61.9868 11.2579 61.1472 10.8981 60.0505 10.8809C59.485 10.8809 58.9795 10.9837 58.534 11.1894C58.1055 11.395 57.7457 11.6692 57.4544 12.0119C57.1802 12.3547 56.9745 12.7573 56.8375 13.22C56.7003 13.6826 56.6318 14.1796 56.6318 14.7109C56.6318 15.2764 56.7003 15.7904 56.8375 16.2531C56.9916 16.6986 57.2144 17.0928 57.5058 17.4355C57.7971 17.7611 58.1569 18.0182 58.5854 18.2066C59.0137 18.378 59.5107 18.4637 60.0762 18.4637Z" fill="#AFAFAF"/>
<path d="M47.8096 19.7999C47.2955 20.4853 46.6701 20.9737 45.9331 21.265C45.1963 21.5563 44.3395 21.6935 43.3628 21.6763C42.1117 21.6421 41.0665 21.2908 40.2268 20.6225C39.7813 20.2454 39.4299 19.7999 39.1729 19.2858C38.933 18.7545 38.813 18.1291 38.813 17.4093C38.8302 16.6725 38.993 16.0214 39.3014 15.4559C39.627 14.8732 40.1154 14.3935 40.7665 14.0164C41.3149 13.7251 41.9318 13.5195 42.6173 13.3995C43.3199 13.2796 44.0824 13.2196 44.905 13.2196H47.6811C47.7324 12.3799 47.5354 11.7544 47.0898 11.3432C46.6614 10.9148 46.0532 10.692 45.2648 10.6748C45.0078 10.6748 44.7422 10.692 44.468 10.7263C44.1938 10.7605 43.9368 10.8291 43.6969 10.9319C43.4742 11.0347 43.277 11.1804 43.1057 11.3689C42.9514 11.5402 42.8486 11.7544 42.7972 12.0115H39.0701C39.1558 11.1889 39.3786 10.5035 39.7384 9.95512C40.1154 9.38962 40.5866 8.93551 41.1521 8.59279C41.7176 8.25007 42.3431 8.01016 43.0286 7.87307C43.7311 7.71884 44.4509 7.64172 45.1877 7.64172C45.5989 7.64172 46.0188 7.66743 46.4473 7.71884C46.8756 7.75311 47.2955 7.8388 47.7067 7.97588C48.118 8.09585 48.5036 8.2672 48.8635 8.48998C49.2404 8.6956 49.5918 8.96978 49.9173 9.31251C50.5 9.98083 50.8598 10.752 50.9969 11.6259C51.1511 12.4828 51.2197 13.3224 51.2025 14.1449V21.4707H47.8867L47.8096 19.7999ZM47.6811 15.4816H45.0335C44.7765 15.4816 44.4852 15.5072 44.1596 15.5586C43.834 15.61 43.5512 15.7043 43.3113 15.8414C43.0714 15.9785 42.8658 16.1584 42.6944 16.3812C42.5402 16.604 42.4631 16.8782 42.4631 17.2038C42.4631 17.478 42.5144 17.7178 42.6173 17.9235C42.7372 18.1291 42.8829 18.3004 43.0543 18.4376C43.2427 18.5746 43.4655 18.686 43.7226 18.7718C43.9797 18.8403 44.2366 18.8746 44.4937 18.8746C44.9907 18.8917 45.4534 18.806 45.8817 18.6175C46.3272 18.429 46.7128 18.1634 47.0384 17.8207C47.2441 17.5465 47.3984 17.238 47.5011 16.8953C47.6211 16.5355 47.6811 16.0641 47.6811 15.4816Z" fill="#AFAFAF"/>
<path fill-rule="evenodd" clip-rule="evenodd" d="M28.9703 15.7434C28.8251 18.2811 28.0046 20.7394 26.587 22.861C25.0179 25.2094 22.7876 27.0398 20.1782 28.1206C17.5688 29.2014 14.6976 29.4843 11.9275 28.9332C9.15742 28.3822 6.61292 27.0222 4.61581 25.0251C2.61869 23.0279 1.25863 20.4834 0.707624 17.7134C0.156619 14.9433 0.439415 12.0719 1.52025 9.46262C2.60108 6.85324 4.43141 4.62298 6.77978 3.05385C8.90141 1.63622 11.3598 0.81575 13.8974 0.670532V7.83407C12.7741 7.9633 11.6933 8.35808 10.7466 8.99063C9.57243 9.77519 8.65726 10.8903 8.11684 12.195C7.57642 13.4997 7.43503 14.9353 7.71053 16.3204C7.98602 17.7054 8.66606 18.9777 9.66462 19.9763C10.6632 20.9748 11.9354 21.6548 13.3205 21.9303C14.7055 22.2059 16.1411 22.0644 17.4458 21.524C18.7505 20.9836 19.8657 20.0685 20.6502 18.8943C21.2827 17.9476 21.6776 16.8668 21.8067 15.7434H28.9703Z" fill="#AFAFAF"/>
<path fill-rule="evenodd" clip-rule="evenodd" d="M21.8498 0.6474H16.0083V7.78749H21.8498V13.6291H28.9899V7.78749L28.9903 0.6474H27.6837H21.8498Z" fill="#AFAFAF"/>
</g>
<defs>
<clipPath id="clip0_58_310">
<rect width="127.102" height="30.0422" fill="white" transform="translate(0.432983 0.32962)"/>
</clipPath>
</defs>
</svg>
