<svg width="141" height="36" viewBox="0 0 141 36" fill="none" xmlns="http://www.w3.org/2000/svg">
<path d="M140.158 34.9239H130.125C129.824 34.1212 129.423 32.9507 128.921 31.4123C128.419 29.8739 128.118 28.9709 128.018 28.7034C127.516 27.2319 127.232 26.3122 127.165 25.9443C127.065 26.2787 126.914 26.7804 126.714 27.4493C126.513 28.0847 126.363 28.5696 126.262 28.904C126.095 29.4726 125.359 31.4792 124.055 34.9239H114.223L122.349 17.5667L114.674 1.46375H124.707C124.807 1.83162 125.175 2.98542 125.811 4.92514C126.48 6.86485 126.965 8.35308 127.266 9.38983C127.5 8.31964 128.219 5.67761 129.423 1.46375L139.556 1.46375L131.931 17.5667L140.158 34.9239Z" fill="white"/>
<path d="M114.963 34.9237H105.633L104.93 30.6596H98.8603L98.1078 34.9237H88.7771L96.8537 1.46356L107.89 1.46356L114.963 34.9237ZM100.064 23.5362H103.877C103.108 18.3525 102.539 13.6704 102.171 9.48997C102.104 9.99163 102.004 10.7775 101.87 11.8477C101.77 12.9179 101.686 13.7038 101.619 14.2055C101.118 17.6502 100.599 20.7604 100.064 23.5362Z" fill="white"/>
<path d="M87.893 34.9237H78.462L77.7597 19.6735C77.7262 19.0046 77.6928 18.0013 77.6593 16.6636C77.6259 15.2924 77.5924 14.2724 77.559 13.6035C77.3583 15.7773 77.0573 17.9177 76.656 20.0246L73.8468 34.9237H66.4725L63.8639 18.8207C63.6633 17.6836 63.4626 15.9445 63.2619 13.6035C63.2619 14.1386 63.2452 14.9245 63.2118 15.9613C63.2118 16.9646 63.1951 17.8843 63.1616 18.7203C63.1616 19.523 63.1449 20.2922 63.1115 21.0279L62.3088 34.9237H52.627L56.5398 1.46356H67.7768C69.3152 10.5936 70.1847 16.5298 70.3854 19.2722C70.586 17.4662 70.8369 15.6436 71.1379 13.8042C71.4389 11.9648 71.8569 9.65719 72.392 6.88139C72.9605 4.10559 73.3284 2.29965 73.4956 1.46356H84.6323L87.893 34.9237Z" fill="white"/>
<path d="M51.8628 34.9237H42.5321L41.8298 30.6596H35.7598L35.0073 34.9237H25.6766L33.7532 1.46356L44.7895 1.46356L51.8628 34.9237ZM36.9638 23.5362H40.7763C40.0071 18.3525 39.4386 13.6704 39.0707 9.48997C39.0038 9.99163 38.9035 10.7775 38.7697 11.8477C38.6694 12.9179 38.5858 13.7038 38.5189 14.2055C38.0172 17.6502 37.4989 20.7604 36.9638 23.5362Z" fill="white"/>
<path d="M25.5825 15.6102V16.9647C25.5825 22.6501 24.8468 26.9141 23.3753 29.7568C22.4054 31.6296 21.0342 33.0677 19.2617 34.071C17.4892 35.0408 15.5328 35.5258 13.3924 35.5258C11.5196 35.5258 9.8307 35.1913 8.32575 34.5225C6.85424 33.8536 5.63356 32.9673 4.6637 31.8637C3.69384 30.7601 2.8912 29.4558 2.25578 27.9508C1.62035 26.4459 1.16887 24.9075 0.90132 23.3356C0.633773 21.7638 0.5 20.1084 0.5 18.3693C0.5 16.162 0.717382 14.0886 1.15215 12.1488C1.62035 10.1757 2.32266 8.31957 3.25908 6.58051C4.22894 4.84146 5.56667 3.45356 7.27228 2.41681C9.01134 1.38007 11.0514 0.861694 13.3924 0.861694C18.643 0.861694 22.4723 3.62077 24.8802 9.13893L16.1013 12.3495C16.001 11.48 15.7335 10.694 15.2987 9.99174C14.8639 9.28943 14.2452 8.93827 13.4426 8.93827C10.9678 8.93827 9.73037 12.3495 9.73037 19.1719C9.73037 24.6901 10.8674 27.4492 13.1416 27.4492C14.2787 27.4492 15.0813 26.9643 15.5495 25.9944C16.0512 24.9911 16.302 23.8707 16.302 22.6333H12.9911V15.6102H25.5825Z" fill="white"/>
</svg>
