<svg width="22" height="21" viewBox="0 0 22 21" fill="none" xmlns="http://www.w3.org/2000/svg">
<path d="M19.6016 10.5718C19.6016 5.78568 15.7217 1.90576 10.9356 1.90576C6.14947 1.90576 2.26956 5.78568 2.26956 10.5718C2.26956 14.636 5.06747 18.0461 8.84207 18.9826V13.22H7.05507V10.5718H8.84207V9.43067C8.84207 6.48104 10.1769 5.11389 13.0727 5.11389C13.6218 5.11389 14.5691 5.22152 14.9566 5.32919V7.72981C14.7521 7.70828 14.3968 7.6975 13.9555 7.6975C12.5345 7.6975 11.9854 8.23577 11.9854 9.63522V10.5718H14.8161L14.3298 13.22H11.9854V19.1743C16.2764 18.6561 19.6016 15.0025 19.6016 10.5718Z" fill="white"/>
</svg>
