<svg width="21" height="21" viewBox="0 0 21 21" fill="none" xmlns="http://www.w3.org/2000/svg">
<path fill-rule="evenodd" clip-rule="evenodd" d="M17.1383 19.2383H3.65784C2.59426 19.2383 1.73206 18.3761 1.73206 17.3125V3.83203C1.73206 2.76845 2.59426 1.90625 3.65784 1.90625H17.1383C18.2019 1.90625 19.0641 2.76845 19.0641 3.83203V17.3125C19.0641 18.3761 18.2019 19.2383 17.1383 19.2383ZM13.9714 16.6385H16.4643V11.5175C16.4643 9.35073 15.236 8.30309 13.5204 8.30309C11.804 8.30309 11.0817 9.63969 11.0817 9.63969V8.5502H8.67931V16.6385H11.0817V12.3926C11.0817 11.255 11.6054 10.578 12.6077 10.578C13.5291 10.578 13.9714 11.2285 13.9714 12.3926V16.6385ZM4.33186 5.99858C4.33186 6.8228 4.99495 7.4911 5.81326 7.4911C6.63157 7.4911 7.29427 6.8228 7.29427 5.99858C7.29427 5.17435 6.63157 4.50605 5.81326 4.50605C4.99495 4.50605 4.33186 5.17435 4.33186 5.99858ZM7.07784 16.6385H4.57277V8.5502H7.07784V16.6385Z" fill="white"/>
</svg>
