<svg width="22" height="21" viewBox="0 0 22 21" fill="none" xmlns="http://www.w3.org/2000/svg">
<path d="M17.7522 7.09097C17.7627 7.2414 17.7627 7.39184 17.7627 7.54366C17.7627 12.1696 14.1858 17.5048 7.64518 17.5048V17.502C5.71306 17.5048 3.82108 16.9599 2.19455 15.9325C2.4755 15.9658 2.75785 15.9824 3.04091 15.9831C4.64209 15.9845 6.1975 15.4556 7.45717 14.4816C5.93556 14.4532 4.60125 13.4764 4.13512 12.0504C4.66814 12.1516 5.21736 12.1308 5.74052 11.9901C4.0816 11.6601 2.88811 10.2251 2.88811 8.55856V8.51419C3.38241 8.78524 3.93585 8.93568 4.50196 8.95231C2.93951 7.92424 2.45789 5.87781 3.40142 4.27781C5.20679 6.46498 7.8705 7.79461 10.7299 7.93533C10.4434 6.7194 10.8349 5.44523 11.7587 4.59046C13.1909 3.26499 15.4434 3.33293 16.7896 4.74228C17.586 4.58769 18.3493 4.3 19.0478 3.89237C18.7823 4.70277 18.2268 5.39115 17.4846 5.82859C18.1894 5.74678 18.8781 5.561 19.5266 5.27746C19.0492 5.98179 18.4478 6.59531 17.7522 7.09097Z" fill="white"/>
</svg>
